<?xml version="1.0" encoding="UTF-8" standalone="no"?>
<!-- Created with Inkscape (http://www.inkscape.org/) -->

<svg
   xmlns:dc="http://purl.org/dc/elements/1.1/"
   xmlns:cc="http://creativecommons.org/ns#"
   xmlns:rdf="http://www.w3.org/1999/02/22-rdf-syntax-ns#"
   xmlns:svg="http://www.w3.org/2000/svg"
   xmlns="http://www.w3.org/2000/svg"
   xmlns:sodipodi="http://sodipodi.sourceforge.net/DTD/sodipodi-0.dtd"
   xmlns:inkscape="http://www.inkscape.org/namespaces/inkscape"
   width="48"
   height="48"
   viewBox="0 0 48 48"
   id="svg2"
   version="1.1"
   inkscape:version="0.91 r"
   sodipodi:docname="logo.svg">
  <defs
     id="defs4" />
  <sodipodi:namedview
     id="base"
     pagecolor="#ffffff"
     bordercolor="#666666"
     borderopacity="1.0"
     inkscape:pageopacity="0.0"
     inkscape:pageshadow="2"
     inkscape:zoom="8"
     inkscape:cx="29.396516"
     inkscape:cy="20.917577"
     inkscape:document-units="px"
     inkscape:current-layer="text4702"
     showgrid="false"
     units="px"
     width="49px"
     inkscape:window-width="1280"
     inkscape:window-height="749"
     inkscape:window-x="0"
     inkscape:window-y="0"
     inkscape:window-maximized="1" />
  <metadata
     id="metadata7">
    <rdf:RDF>
      <cc:Work
         rdf:about="">
        <dc:format>image/svg+xml</dc:format>
        <dc:type
           rdf:resource="http://purl.org/dc/dcmitype/StillImage" />
        <dc:title></dc:title>
      </cc:Work>
    </rdf:RDF>
  </metadata>
  <g
     inkscape:label="Layer 1"
     inkscape:groupmode="layer"
     id="layer1"
     transform="translate(0,-1004.3622)">
    <g
       transform="matrix(0.70077374,-0.7133836,0.7133836,0.70077374,0,0)"
       style="font-style:normal;font-variant:normal;font-weight:normal;font-stretch:normal;font-size:14.83150291px;line-height:125%;font-family:Ubuntu;-inkscape-font-specification:Ubuntu;letter-spacing:0px;word-spacing:0px;fill:#000000;fill-opacity:1;stroke:none;stroke-width:1px;stroke-linecap:butt;stroke-linejoin:miter;stroke-opacity:1"
       id="text4702">
      <g
         id="g4751"
         transform="matrix(0.98139362,-0.01894122,-0.01894122,0.98071791,20.033801,24.400427)">
        <g
           transform="matrix(0.70077374,0.7133836,-0.7133836,0.70077374,-23.108195,-25.486125)"
           id="text4695"
           style="font-style:normal;font-variant:normal;font-weight:normal;font-stretch:normal;font-size:40px;line-height:125%;font-family:FreeSerif;-inkscape-font-specification:FreeSerif;letter-spacing:0px;word-spacing:0px;fill:#000000;fill-opacity:1;stroke:none;stroke-width:1px;stroke-linecap:butt;stroke-linejoin:miter;stroke-opacity:1">
          <path
             sodipodi:nodetypes="scssszczcssscscscsccscscscccccsssscsscscsssss"
             inkscape:connector-curvature="0"
             id="path4700"
             d="m 24.78,1015.8022 c -3.36,0 -6.08,1.2533 -8.16,3.76 -2.08,2.48 -3.12,5.52 -3.12,9.12 0,3.4667 1.093333,6.32 3.28,8.56 2.186667,2.24 4.986667,3.36 8.4,3.36 2.373333,0 4.547706,-0.8702 7.84,-1.92 3.292294,-1.0498 8.907153,-1.9573 10.111567,1.1102 -4.313807,-1.7887 -10.059289,0.2913 -10.947788,0.6653 -0.8885,0.374 -2.506176,0.9799 -3.443779,1.2245 -1.2,0.32 -2.506667,0.48 -3.92,0.48 -4.133333,0 -7.613333,-1.3067 -10.44,-3.92 -2.826667,-2.6133 -4.24,-5.84 -4.24,-9.68 0,-3.8933 1.413333,-7.2 4.24,-9.92 2.853333,-2.72 6.306667,-4.08 10.36,-4.08 3.706667,0 6.813333,1.1333 9.32,3.4 2.533333,2.24 3.8,5.0133 3.8,8.32 0,2.5867 -0.733333,4.84 -2.2,6.76 -1.466667,1.8933 -3.186667,2.84 -5.16,2.84 -0.96,0 -1.786667,-0.2667 -2.48,-0.8 -0.666667,-0.5333 -1.053333,-1.24 -1.16,-2.12 -1.44,1.92 -3.106667,2.88 -5,2.88 -0.986667,0 -1.826667,-0.4267 -2.52,-1.28 -0.666667,-0.88 -1,-1.9467 -1,-3.2 0,-2.4 0.746667,-4.68 2.24,-6.84 1.52,-2.16 3.386667,-3.24 5.6,-3.24 0.693333,0 1.226667,0.1467 1.6,0.44 0.4,0.2667 0.826667,0.8133 1.28,1.64 l 0.4,-1.52 2.76,0 -2.6,10.16 c -0.05333,0.32 -0.08,0.56 -0.08,0.72 0,1.2267 0.52,1.84 1.56,1.84 1.306667,0 2.493333,-0.8133 3.56,-2.44 1.066667,-1.6267 1.6,-3.44 1.6,-5.44 0,-2.9867 -1.133333,-5.5467 -3.4,-7.68 -2.24,-2.1333 -4.933333,-3.2 -8.08,-3.2 z m 3.6,9.56 c 0,-0.8267 -0.173333,-1.4133 -0.52,-1.76 -0.346667,-0.3733 -0.76,-0.56 -1.24,-0.56 -1.093333,0 -2.28,0.7467 -3.56,2.24 -1.253333,1.4667 -1.88,3.28 -1.88,5.44 0,1.04 0.213333,1.8667 0.64,2.48 0.426667,0.6133 1.013333,0.92 1.76,0.92 1.28,0 2.4,-1 3.36,-3 0.96,-2 1.44,-3.92 1.44,-5.76 z" />
        </g>
        <path
           sodipodi:nodetypes="ccccc"
           inkscape:connector-curvature="0"
           id="path4707"
           d="m -719.62523,709.14984 c -0.11931,0.97423 -1.71751,0.97507 -3.0108,1.17165 0.15939,1.33775 0.92711,6.59572 -1.95807,6.29763 1.19431,-2.6384 1.1996,-5.3706 0.57874,-7.20235 1.71597,-0.36496 3.0466,0.17869 4.39013,-0.26693 z" />
        <g
           id="text4709"
           style="font-style:normal;font-variant:normal;font-weight:normal;font-stretch:normal;font-size:40px;line-height:125%;font-family:Ubuntu;-inkscape-font-specification:Ubuntu;letter-spacing:0px;word-spacing:0px;fill:#000000;fill-opacity:1;stroke:none;stroke-width:1px;stroke-linecap:butt;stroke-linejoin:miter;stroke-opacity:1"
           transform="matrix(0.70077374,0.7133836,-0.7133836,0.70077374,-23.108195,-25.486125)">
          <path
             sodipodi:nodetypes="ccc"
             inkscape:connector-curvature="0"
             id="path4714"
             d="m 36.801536,1015.2749 c 1.393534,-0.1824 3.04139,-1.8972 3.503532,-0.5114 -1.393535,0.1824 -3.04139,1.8972 -3.503532,0.5114 z" />
          <path
             sodipodi:nodetypes="scsss"
             inkscape:connector-curvature="0"
             id="path4714-3"
             d="m 38.84607,1017.7929 c 0.148759,0.083 1.512551,0.3421 2.6876,-0.3174 -1.654342,0.071 -2.16582,-0.1129 -2.512493,-0.2219 -0.223841,-0.07 -0.308147,0.1548 -0.293952,0.3357 0.0085,0.1085 0.04939,0.1648 0.118845,0.2036 z"
             style="font-style:normal;font-variant:normal;font-weight:normal;font-stretch:normal;font-size:40px;line-height:125%;font-family:Ubuntu;-inkscape-font-specification:Ubuntu;letter-spacing:0px;word-spacing:0px;fill:#000000;fill-opacity:1;stroke:none;stroke-width:1px;stroke-linecap:butt;stroke-linejoin:miter;stroke-opacity:1" />
        </g>
      </g>
    </g>
  </g>
</svg>
